<svg width="21" height="48" viewBox="0 0 21 48" fill="none" xmlns="http://www.w3.org/2000/svg">
<rect width="48" height="48" rx="8" fill="#EBEFFF"/>
<path d="M19.8 14.3999L27.3375 21.9374L23.1375 26.1374L12.825 15.8249L19.8 14.3999Z" fill="#ED4C5C"/>
<path d="M15.975 14.175C14.025 14.5125 12.6 15.1875 12.75 15.7125C12.9375 16.2375 14.6625 16.3875 16.65 16.05C18.6 15.675 20.0625 15 19.875 14.475C19.6875 13.95 17.925 13.8375 15.975 14.175Z" fill="#ED4C5C"/>
<path d="M16.05 14.1751C14.2125 14.4751 12.8625 15.1501 13.05 15.6376C13.2375 16.1251 14.85 16.2376 16.6875 15.9376C18.525 15.6376 19.875 14.9626 19.6875 14.5126C19.5 13.9876 17.8875 13.8376 16.05 14.1751Z" fill="#FF8080"/>
<path d="M18.3206 21.8862L23.1465 17.0603L29.4574 23.3712L24.6311 28.1974L18.3206 21.8862Z" fill="#E8E8E8"/>
</svg>
