<svg width="48" height="48" viewBox="0 0 48 48" fill="none" xmlns="http://www.w3.org/2000/svg">
<rect width="48" height="48" rx="8" fill="#EBEFFF"/>
<path d="M30.5018 14.5L31.0312 13.9687C30.9207 13.8587 30.7788 13.7858 30.6251 13.7602L30.5018 14.5ZM34 17.986L34.6113 18.4206C34.8236 18.1219 34.789 17.7134 34.5294 17.4547L34 17.986ZM31.5018 21.5L31.0518 22.1C31.2135 22.2213 31.4175 22.2722 31.6173 22.2411C31.8171 22.2099 31.9958 22.0994 32.113 21.9346L31.5018 21.5ZM24.0018 17L23.5137 17.5694L24.0018 17.9878L24.4898 17.5694L24.0018 17ZM27.5018 14L27.6251 13.2602C27.4061 13.2237 27.1822 13.2861 27.0137 13.4306L27.5018 14ZM17.5018 14.5L17.3785 13.7602C17.2247 13.7858 17.0828 13.8587 16.9724 13.9687L17.5018 14.5ZM14.0035 17.986L13.4741 17.4547C13.2145 17.7134 13.1799 18.1219 13.3922 18.4206L14.0035 17.986ZM16.5018 21.5L15.8905 21.9346C16.0077 22.0994 16.1864 22.2099 16.3862 22.2411C16.5861 22.2722 16.79 22.2213 16.9518 22.1L16.5018 21.5ZM20.5018 14L20.9898 13.4306C20.8213 13.2861 20.5974 13.2237 20.3785 13.2602L20.5018 14ZM29.9724 15.0313L33.4706 18.5173L34.5294 17.4547L31.0312 13.9687L29.9724 15.0313ZM29.0518 20.6L31.0518 22.1L31.9518 20.9L29.9518 19.4L29.0518 20.6ZM33.3887 17.5514L30.8905 21.0654L32.113 21.9346L34.6113 18.4206L33.3887 17.5514ZM24.4898 17.5694L27.9898 14.5694L27.0137 13.4306L23.5137 16.4306L24.4898 17.5694ZM27.3785 14.7398L30.3785 15.2398L30.6251 13.7602L27.6251 13.2602L27.3785 14.7398ZM16.9724 13.9687L13.4741 17.4547L14.5329 18.5173L18.0312 15.0313L16.9724 13.9687ZM18.0518 19.4L16.0518 20.9L16.9518 22.1L18.9518 20.6L18.0518 19.4ZM13.3922 18.4206L15.8905 21.9346L17.113 21.0654L14.6148 17.5514L13.3922 18.4206ZM24.4898 16.4306L20.9898 13.4306L20.0137 14.5694L23.5137 17.5694L24.4898 16.4306ZM20.3785 13.2602L17.3785 13.7602L17.6251 15.2398L20.6251 14.7398L20.3785 13.2602Z" fill="#323135"/>
<path d="M18.5994 25.3062L19.3324 25.465C19.3347 25.4548 19.3366 25.4446 19.3384 25.4343L18.5994 25.3062ZM17 32.6921L16.267 32.5334L16.1369 33.134L16.7003 33.3796L17 32.6921ZM29.4034 25.3062L28.6644 25.4343C28.6662 25.4445 28.6681 25.4546 28.6703 25.4647L29.4034 25.3062ZM31 32.6921L31.2998 33.3796L31.8629 33.134L31.7331 32.5336L31 32.6921ZM17.8664 25.1475L16.267 32.5334L17.733 32.8508L19.3324 25.465L17.8664 25.1475ZM17.3984 18.9459C18.021 19.7879 18.2409 20.7969 18.2472 21.8936C18.2534 23.0024 18.0432 24.1238 17.8605 25.1782L19.3384 25.4343C19.5136 24.4235 19.7543 23.1559 19.7471 21.8851C19.7399 20.602 19.4819 19.2406 18.6044 18.0541L17.3984 18.9459ZM28.6703 25.4647L30.2669 32.8506L31.7331 32.5336L30.1365 25.1478L28.6703 25.4647ZM29.3984 18.0541C28.521 19.2406 28.263 20.602 28.2557 21.8851C28.2485 23.1559 28.4892 24.4235 28.6644 25.4343L30.1424 25.1782C29.9596 24.1238 29.7494 23.0024 29.7557 21.8936C29.7619 20.7969 29.9819 19.7879 30.6044 18.9459L29.3984 18.0541ZM16.7003 33.3796C18.8162 34.302 21.4233 34.75 24.0005 34.75C26.5778 34.75 29.1845 34.302 31.2998 33.3796L30.7002 32.0046C28.8165 32.8261 26.4234 33.25 24.0005 33.25C21.5776 33.25 19.1842 32.8261 17.2997 32.0046L16.7003 33.3796Z" fill="#323135"/>
</svg>
