<svg width="48" height="48" viewBox="0 0 48 48" fill="none" xmlns="http://www.w3.org/2000/svg">
<rect width="48" height="48" rx="8" fill="#EBEFFF"/>
<path d="M35.171 21.7765L34 21.191V20.5C34 20.1022 33.842 19.7206 33.5607 19.4393C33.2794 19.158 32.8978 19 32.5 19H31.5V18.5C31.5 18.1022 31.342 17.7206 31.0607 17.4393C30.7794 17.158 30.3978 17 30 17H28.5C28.1022 17 27.7207 17.158 27.4393 17.4393C27.158 17.7206 27 18.1022 27 18.5V22H21V18.5C21 18.1022 20.842 17.7206 20.5607 17.4393C20.2794 17.158 19.8978 17 19.5 17H18C17.6022 17 17.2207 17.158 16.9393 17.4393C16.658 17.7206 16.5 18.1022 16.5 18.5V19H15.5C15.1022 19 14.7207 19.158 14.4393 19.4393C14.158 19.7206 14 20.1022 14 20.5V21.191L12.829 21.7765C12.5793 21.9004 12.3693 22.0917 12.2228 22.3288C12.0763 22.5659 11.9991 22.8393 12 23.118V24.882C11.9991 25.1607 12.0763 25.4341 12.2228 25.6712C12.3693 25.9083 12.5793 26.0996 12.829 26.2235L14 26.809V27.5C14 27.8978 14.158 28.2794 14.4393 28.5607C14.7207 28.842 15.1022 29 15.5 29H16.5V29.5C16.5 29.8978 16.658 30.2794 16.9393 30.5607C17.2207 30.842 17.6022 31 18 31H19.5C19.8978 31 20.2794 30.842 20.5607 30.5607C20.842 30.2794 21 29.8978 21 29.5V26H27V29.5C27 29.8978 27.158 30.2794 27.4393 30.5607C27.7207 30.842 28.1022 31 28.5 31H30C30.3978 31 30.7794 30.842 31.0607 30.5607C31.342 30.2794 31.5 29.8978 31.5 29.5V29H32.5C32.8978 29 33.2794 28.842 33.5607 28.5607C33.842 28.2794 34 27.8978 34 27.5V26.809L35.171 26.2235C35.4207 26.0996 35.6307 25.9083 35.7772 25.6712C35.9237 25.4341 36.0009 25.1607 36 24.882V23.118C36.0009 22.8393 35.9237 22.5659 35.7772 22.3288C35.6307 22.0917 35.4207 21.9004 35.171 21.7765ZM13.2765 25.329C13.1932 25.2878 13.1232 25.2241 13.0743 25.145C13.0255 25.066 12.9997 24.9749 13 24.882V23.118C12.9997 23.0251 13.0255 22.934 13.0743 22.855C13.1232 22.7759 13.1932 22.7122 13.2765 22.671L14 22.309V25.691L13.2765 25.329ZM15.5 28C15.3674 28 15.2402 27.9473 15.1465 27.8536C15.0527 27.7598 15 27.6326 15 27.5V20.5C15 20.3674 15.0527 20.2402 15.1465 20.1464C15.2402 20.0527 15.3674 20 15.5 20H16.5V28H15.5ZM20 29.5C20 29.6326 19.9473 29.7598 19.8536 29.8536C19.7598 29.9473 19.6326 30 19.5 30H18C17.8674 30 17.7402 29.9473 17.6465 29.8536C17.5527 29.7598 17.5 29.6326 17.5 29.5V18.5C17.5 18.3674 17.5527 18.2402 17.6465 18.1464C17.7402 18.0527 17.8674 18 18 18H19.5C19.6326 18 19.7598 18.0527 19.8536 18.1464C19.9473 18.2402 20 18.3674 20 18.5V29.5ZM21 25V23H27V25H21ZM30.5 29.5C30.5 29.6326 30.4473 29.7598 30.3536 29.8536C30.2598 29.9473 30.1326 30 30 30H28.5C28.3674 30 28.2402 29.9473 28.1465 29.8536C28.0527 29.7598 28 29.6326 28 29.5V18.5C28 18.3674 28.0527 18.2402 28.1465 18.1464C28.2402 18.0527 28.3674 18 28.5 18H30C30.1326 18 30.2598 18.0527 30.3536 18.1464C30.4473 18.2402 30.5 18.3674 30.5 18.5V29.5ZM33 27.5C33 27.6326 32.9473 27.7598 32.8536 27.8536C32.7598 27.9473 32.6326 28 32.5 28H31.5V20H32.5C32.6326 20 32.7598 20.0527 32.8536 20.1464C32.9473 20.2402 33 20.3674 33 20.5V27.5ZM35 24.882C35.0003 24.9749 34.9746 25.066 34.9257 25.145C34.8768 25.2241 34.8068 25.2878 34.7235 25.329L34 25.691V22.309L34.7235 22.671C34.8068 22.7122 34.8768 22.7759 34.9257 22.855C34.9746 22.934 35.0003 23.0251 35 23.118V24.882Z" fill="#323135"/>
</svg>
