<svg width="48" height="48" viewBox="0 0 48 48" fill="none" xmlns="http://www.w3.org/2000/svg">
<rect width="48" height="48" rx="8" fill="#EBEFFF"/>
<path d="M17.9999 23H21.9999M19.9999 21V25M26.9999 24H27.0099M29.9999 22H30.0099M22.4488 17H25.5509C28.1758 17 29.4883 17 30.5184 17.4974C31.4254 17.9354 32.179 18.6371 32.6805 19.5106C33.2501 20.5027 33.3436 21.8118 33.5306 24.43L33.7766 27.8745C33.8973 29.5634 32.5597 31 30.8664 31C30.0005 31 29.1794 30.6154 28.6251 29.9502L28.2499 29.5C27.9068 29.0882 27.7351 28.8823 27.5398 28.7159C27.1302 28.3672 26.6344 28.1349 26.1043 28.0436C25.8514 28 25.5834 28 25.0473 28H22.9525C22.4164 28 22.1484 28 21.8955 28.0436C21.3654 28.1349 20.8696 28.3672 20.46 28.7159C20.2646 28.8823 20.0931 29.0882 19.7499 29.5L19.3747 29.9502C18.8204 30.6154 17.9992 31 17.1334 31C15.4401 31 14.1025 29.5634 14.2231 27.8745L14.4692 24.43C14.6562 21.8118 14.7497 20.5027 15.3193 19.5106C15.8207 18.6371 16.5743 17.9354 17.4814 17.4974C18.5115 17 19.824 17 22.4488 17Z" stroke="#323135" stroke-width="1.5" stroke-linecap="round" stroke-linejoin="round"/>
</svg>
