<svg width="48" height="48" viewBox="0 0 48 48" fill="none" xmlns="http://www.w3.org/2000/svg">
<rect width="48" height="48" rx="8" fill="#EBEFFF"/>
<path d="M17 29V32M31 29V32" stroke="#323135" stroke-width="1.5" stroke-linejoin="round"/>
<path d="M32 21V18C32 16.8954 31.1046 16 30 16H18C16.8954 16 16 16.8954 16 18V21" stroke="#323135" stroke-width="1.5" stroke-linejoin="round"/>
<path d="M33 24.7324L32.6245 24.0832L32.25 24.2998V24.7324H33ZM15 24.7324H15.75V24.2998L15.3755 24.0832L15 24.7324ZM15 29H14.25C14.25 29.4142 14.5858 29.75 15 29.75V29ZM33 29V29.75C33.4142 29.75 33.75 29.4142 33.75 29H33ZM18 26H17.25V26.75H18V26ZM30 26V26.75H30.75V26H30ZM30.75 23C30.75 22.3096 31.3096 21.75 32 21.75V20.25C30.4812 20.25 29.25 21.4812 29.25 23H30.75ZM32 21.75C32.6904 21.75 33.25 22.3096 33.25 23H34.75C34.75 21.4812 33.5188 20.25 32 20.25V21.75ZM33.25 23C33.25 23.4617 33 23.866 32.6245 24.0832L33.3755 25.3816C34.1956 24.9073 34.75 24.0188 34.75 23H33.25ZM18.75 23C18.75 21.4812 17.5188 20.25 16 20.25V21.75C16.6904 21.75 17.25 22.3096 17.25 23H18.75ZM16 20.25C14.4812 20.25 13.25 21.4812 13.25 23H14.75C14.75 22.3096 15.3096 21.75 16 21.75V20.25ZM13.25 23C13.25 24.0188 13.8044 24.9073 14.6245 25.3816L15.3755 24.0832C15 23.866 14.75 23.4617 14.75 23H13.25ZM15 29.75H33V28.25H15V29.75ZM18 26.75H30V25.25H18V26.75ZM17.25 23V26H18.75V23H17.25ZM14.25 24.7324V29H15.75V24.7324H14.25ZM29.25 23V26H30.75V23H29.25ZM32.25 24.7324V29H33.75V24.7324H32.25Z" fill="#323135"/>
</svg>
